<?xml version="1.0" encoding="UTF-8" standalone="no"?>
<!DOCTYPE svg PUBLIC "-//W3C//DTD SVG 1.1//EN" "http://www.w3.org/Graphics/SVG/1.1/DTD/svg11.dtd">
<svg width="100%" height="100%" viewBox="0 0 100 100" version="1.1" xmlns="http://www.w3.org/2000/svg" xmlns:xlink="http://www.w3.org/1999/xlink" xml:space="preserve" xmlns:serif="http://www.serif.com/" style="fill-rule:evenodd;clip-rule:evenodd;stroke-linejoin:round;stroke-miterlimit:2;">
    <g id="chart">
        <path d="M29.48,19.61C29.52,19.602 29.561,19.597 29.602,19.597C29.913,19.597 30.175,19.84 30.2,20.15L30.2,20.44C29.965,20.613 29.71,20.757 29.44,20.87C29.248,21.09 29.018,21.273 28.76,21.41C28.47,21.59 28.22,21.74 27.96,21.92C27.868,22.054 27.744,22.164 27.6,22.24C27.459,22.34 27.325,22.451 27.2,22.57C27.134,22.68 27.037,22.767 26.92,22.82C26.746,22.818 26.578,22.882 26.45,23C26.315,23.113 26.153,23.189 25.98,23.22L25.55,23.54C25.437,23.689 25.285,23.803 25.11,23.87C26.16,23.58 27.24,23.33 28.4,23.11L28.4,23C28.466,22.995 28.528,22.971 28.58,22.93L28.68,22.82L28.86,22.82L28.86,22.53C28.929,22.247 28.979,21.96 29.01,21.67C29.08,21.67 29.12,21.59 29.15,21.49L29.33,21.49C29.347,21.431 29.347,21.369 29.33,21.31C29.736,21.338 30.137,21.422 30.52,21.56C30.662,21.63 30.775,21.746 30.84,21.89C31.08,22.057 31.31,22.238 31.53,22.43L31.96,22.82C31.985,22.926 32.049,23.019 32.14,23.08C32.244,23.157 32.329,23.256 32.39,23.37C32.452,23.466 32.543,23.54 32.65,23.58C32.794,23.84 32.924,24.107 33.04,24.38C33.15,24.45 33.19,24.48 33.22,24.56C33.25,24.64 33.3,24.66 33.37,24.66C33.394,24.767 33.458,24.86 33.55,24.92C33.645,24.984 33.699,25.095 33.69,25.21C33.707,25.31 33.744,25.405 33.8,25.49C33.744,25.542 33.696,25.603 33.66,25.67C33.532,25.76 33.371,25.79 33.22,25.75C33.22,25.82 33.22,25.85 33.11,25.75L32.39,25.75C32.212,25.844 31.998,25.844 31.82,25.75C31.681,25.643 31.521,25.568 31.35,25.53C30.925,25.388 30.524,25.182 30.16,24.92C30.01,24.92 29.9,24.92 29.76,24.99C29.627,25.058 29.48,25.096 29.33,25.1C29.095,25.19 28.855,25.264 28.61,25.32C28.055,25.373 27.515,25.532 27.02,25.79C26.741,26.001 26.486,26.243 26.26,26.51C26.059,26.785 25.831,27.04 25.58,27.27L25.36,27.88C25.046,28.26 24.79,28.685 24.6,29.14C25.18,29.25 25.79,29.39 26.37,29.54C26.908,29.702 27.427,29.92 27.92,30.19C27.912,30.167 27.912,30.143 27.92,30.12C27.92,29.72 28.02,29.29 28.06,28.85C28.125,28.439 28.008,28.019 27.74,27.7C27.53,27.504 27.299,27.333 27.05,27.19C26.785,27.015 26.465,26.94 26.15,26.98C26.095,26.944 26.034,26.917 25.97,26.9C26.236,26.617 26.587,26.427 26.97,26.36C27.693,26.356 28.412,26.467 29.1,26.69C29.742,26.847 30.321,27.196 30.76,27.69C31.103,28.129 31.382,28.613 31.59,29.13C31.45,29.71 31.34,30.25 31.23,30.79C31.59,30.43 31.95,30.11 32.23,29.79C32.545,29.438 32.878,29.105 33.23,28.79L33.02,28.79C33.38,28.6 33.689,28.326 33.92,27.99C34.151,27.654 33.92,27.99 33.92,27.99C34.073,27.895 34.197,27.76 34.28,27.6C34.35,27.6 34.39,27.6 34.39,27.52C34.39,27.44 34.39,27.42 34.46,27.42C34.53,27.42 34.46,27.42 34.46,27.34C34.46,27.26 34.46,27.27 34.46,27.27C34.565,27.031 34.603,26.769 34.57,26.51C34.646,26.469 34.69,26.386 34.68,26.3C34.67,26.214 34.61,26.3 34.54,26.23C34.623,25.643 34.669,25.052 34.68,24.46C34.75,23.77 34.79,23.05 34.82,22.33C34.847,21.581 34.8,20.83 34.68,20.09L34.97,20.09C35.015,20.058 35.041,20.005 35.04,19.95C35.04,19.87 35.04,19.87 35.15,19.95C35.15,19.81 35.29,19.73 35.51,19.73L35.51,19.63L35.58,19.63C35.998,19.722 36.409,19.842 36.81,19.99C37.594,20.185 38.295,20.627 38.81,21.25C38.785,21.365 38.81,21.485 38.88,21.58C38.978,21.677 39.066,21.784 39.14,21.9C39.209,22.172 39.256,22.45 39.28,22.73C39.334,22.997 39.269,23.275 39.1,23.49C39.078,23.862 38.994,24.227 38.85,24.57C38.92,24.72 38.99,24.79 39.1,24.79C39.288,24.806 39.474,24.74 39.61,24.61C40.04,24.35 40.47,24.07 40.9,23.78C41.33,23.49 40.9,23.78 40.9,23.78C41.124,23.685 41.33,23.553 41.51,23.39C41.411,23.286 41.339,23.159 41.3,23.02L41.44,23.02L42.27,22.84L43,22.84C43.23,22.859 43.452,22.931 43.65,23.05C44.206,23.319 44.708,23.688 45.13,24.14C45.275,24.255 45.365,24.426 45.38,24.61C45.433,24.661 45.463,24.731 45.463,24.805C45.463,24.879 45.433,24.949 45.38,25C45.269,25.12 45.149,25.23 45.02,25.33C44.793,25.506 44.552,25.663 44.3,25.8C44.129,25.911 43.971,26.042 43.83,26.19C43.495,26.467 43.102,26.665 42.68,26.77L42.42,26.88C42.359,26.898 42.317,26.956 42.32,27.02C42.666,27.395 43.036,27.746 43.43,28.07C43.818,28.375 44.182,28.71 44.52,29.07C45.055,29.431 45.397,30.017 45.45,30.66C45.42,30.716 45.42,30.784 45.45,30.84C45.459,30.858 45.464,30.878 45.464,30.898C45.464,30.952 45.43,31.001 45.38,31.02C45.33,31.039 45.38,31.09 45.31,31.17C45.24,31.25 45.24,31.28 45.09,31.24C45.003,31.351 44.871,31.417 44.73,31.42L44.48,31.53L44.37,31.53C44.329,31.573 44.282,31.61 44.23,31.64C44.019,31.712 43.791,31.712 43.58,31.64C43.22,31.64 42.86,31.57 42.5,31.57C42.135,31.538 41.768,31.562 41.41,31.64C41.227,31.629 41.044,31.653 40.87,31.71C40.87,31.64 40.8,31.6 40.69,31.6L39.29,31.6C39.025,31.593 38.762,31.57 38.5,31.53L38.17,31.53C37.985,31.446 37.79,31.386 37.59,31.35C37.263,31.234 36.929,31.137 36.59,31.06C36.259,30.971 35.952,30.811 35.69,30.59C34.971,30.197 34.505,29.458 34.46,28.64C34.383,28.691 34.312,28.752 34.25,28.82C34.243,28.905 34.204,28.984 34.14,29.04C33.749,29.342 33.411,29.707 33.14,30.12C33.21,30.12 33.21,30.19 33.14,30.27C33.114,30.277 33.086,30.277 33.06,30.27C33.06,30.2 33.14,30.16 33.14,30.13C32.92,30.42 32.7,30.7 32.52,30.99C32.425,31.154 32.341,31.324 32.27,31.5L32.2,31.5C32.018,31.654 31.847,31.821 31.69,32C31.513,32.135 31.387,32.325 31.33,32.54C31.325,32.625 31.285,32.705 31.22,32.76C31.15,32.76 31.11,32.87 31.04,32.9C30.98,32.976 30.98,33.084 31.04,33.16C31.04,33.08 31.04,33.08 31.11,33.08C31.156,33.223 31.093,33.38 30.96,33.45C30.96,34.96 31.07,36.19 31.15,37.16C31.23,38.13 31.29,38.82 31.36,39.16C31.414,39.437 31.424,39.72 31.39,40C31.378,40.092 31.34,40.179 31.28,40.25C31.223,40.251 31.17,40.282 31.14,40.33C31.058,40.415 31.018,40.532 31.03,40.65C31.03,40.72 30.96,40.8 30.81,40.83C30.67,41.047 30.451,41.201 30.2,41.26C29.855,41.506 29.429,41.61 29.01,41.55C28.764,41.443 28.553,41.27 28.4,41.05C27.972,40.729 27.603,40.337 27.31,39.89C26.283,39.054 25.374,38.082 24.61,37C23.846,35.918 24.5,37.08 24.46,37C24.42,36.92 24.36,37 24.32,37.07C23.876,37.031 23.439,36.933 23.02,36.78L22.84,36.68C22.861,36.98 22.861,37.28 22.84,37.58C22.804,37.881 22.899,38.183 23.1,38.41L22.99,38.51C22.99,38.51 22.92,38.59 22.99,38.62C23.096,38.625 23.197,38.664 23.28,38.73C23.243,38.913 23.168,39.087 23.06,39.24C22.966,39.385 22.83,39.496 22.67,39.56C22.511,39.605 22.361,39.679 22.23,39.78C22.125,39.81 22.015,39.81 21.91,39.78C21.647,39.589 21.445,39.324 21.33,39.02L20.97,38.41C20.908,38.169 20.933,37.914 21.04,37.69C21.155,36.342 21.372,35.005 21.69,33.69C22.05,32.39 22.45,31.09 22.85,29.83C23.17,29.18 23.43,28.57 23.68,27.92C23.923,27.274 24.26,26.667 24.68,26.12L24.61,26.12C24.248,26.292 23.874,26.436 23.49,26.55C23.121,26.674 22.769,26.842 22.44,27.05L21.68,27.49C21.419,27.611 21.202,27.81 21.06,28.06L20.81,28.06C20.73,28.095 20.665,28.16 20.63,28.24C20.447,28.251 20.264,28.227 20.09,28.17C19.748,28 19.45,27.754 19.22,27.45C19.08,27.31 18.9,27.13 18.72,26.98C18.731,26.903 18.755,26.829 18.79,26.76C18.86,26.76 18.9,26.66 18.86,26.62C18.82,26.58 19.01,26.62 19.01,26.48C19.004,26.393 19.064,26.315 19.15,26.3C19.236,26.285 19.22,26.22 19.26,26.19C19.3,26.16 19.33,26.12 19.26,26.08C19.334,26.036 19.396,25.974 19.44,25.9C19.504,25.844 19.543,25.765 19.55,25.68C19.606,25.733 19.683,25.759 19.76,25.75C20.048,25.659 20.326,25.538 20.59,25.39C22.151,23.868 23.62,22.256 24.99,20.56C25.004,20.487 25.004,20.413 24.99,20.34C24.948,20.251 24.948,20.149 24.99,20.06C25.15,20.051 25.297,19.97 25.39,19.84L25.71,19.59C26.04,19.373 26.392,19.192 26.76,19.05C27.03,19.048 27.297,19.095 27.55,19.19C27.805,19.3 28.074,19.374 28.35,19.41C28.712,19.542 29.095,19.61 29.48,19.61ZM43.04,13.61C43.178,13.924 43.216,14.273 43.15,14.61C43.164,14.715 43.106,14.817 43.01,14.86C42.918,14.926 42.831,15 42.75,15.08C42.57,15.062 42.39,15.062 42.21,15.08C41.972,15.266 41.705,15.412 41.42,15.51C41.114,15.568 40.813,15.652 40.52,15.76C40.25,16.008 39.885,16.129 39.52,16.09C39.45,16.16 39.38,16.2 39.31,16.16C39.212,16.09 39.099,16.042 38.98,16.02C39.071,16.08 39.155,16.15 39.23,16.23C39.297,16.283 39.338,16.364 39.34,16.45C39.285,16.496 39.246,16.56 39.23,16.63C39.18,16.848 39.052,17.04 38.87,17.17C38.596,17.147 38.325,17.237 38.12,17.42C36.893,17.821 35.619,18.063 34.33,18.14C34.116,18.186 33.899,18.212 33.68,18.22C33.615,18.287 33.524,18.324 33.43,18.32C33.336,18.316 33.43,18.32 33.43,18.25C32.49,18.43 31.56,18.58 30.62,18.72C30.13,18.974 29.58,19.088 29.03,19.05L28.74,19.15L26.65,19.01L26.79,18.9C26.69,18.83 26.61,18.83 26.58,18.9C26.281,18.795 26.027,18.59 25.86,18.32C25.89,18.452 25.89,18.588 25.86,18.72C25.78,18.9 25.71,18.94 25.57,18.83C25.43,18.72 25.35,18.72 25.28,18.76C25.22,18.828 25.194,18.92 25.21,19.01C25.226,19.1 25.13,19.01 25.13,18.94C25.13,18.87 25.13,19.05 25.03,19.01C24.982,18.992 24.928,18.992 24.88,19.01C24.832,19.028 24.81,19.01 24.77,19.08C24.629,19.045 24.481,19.045 24.34,19.08C24.244,19.217 24.07,19.277 23.91,19.23C23.187,18.706 22.594,18.021 22.18,17.23C21.4,16.163 20.986,14.872 21,13.55C21.033,13.197 21.142,12.856 21.32,12.55C21.446,12.508 21.55,12.418 21.61,12.3C21.628,12.228 21.628,12.152 21.61,12.08C21.827,12.013 22.062,12.039 22.26,12.15C22.512,12.439 22.696,12.781 22.8,13.15C22.916,13.529 23.126,13.873 23.41,14.15C23.55,14.55 23.7,14.91 23.84,15.24C24,15.592 24.194,15.927 24.42,16.24C25.005,16.824 25.492,17.5 25.86,18.24C26.228,18.98 25.86,18.24 25.86,18.24C25.86,18.236 25.859,18.233 25.859,18.229C25.859,18.175 25.905,18.129 25.959,18.129C25.963,18.129 25.966,18.13 25.97,18.13C26.002,18.144 26.036,18.151 26.07,18.151C26.17,18.151 26.261,18.091 26.3,18L26.3,17.86C26.514,17.797 26.722,17.713 26.92,17.61C27.081,17.525 27.248,17.452 27.42,17.39C27.353,17.127 27.231,16.881 27.06,16.67C26.667,15.799 26.555,14.827 26.74,13.89C26.664,13.939 26.575,13.965 26.485,13.965C26.325,13.965 26.176,13.884 26.09,13.75C26.004,13.616 26.01,13.68 26.09,13.61C26.045,13.561 26.02,13.497 26.02,13.43C26.82,12.491 27.817,11.74 28.94,11.23C30.052,10.679 31.228,10.266 32.44,10C33.49,9.741 34.568,9.61 35.65,9.61C36.755,9.569 37.858,9.752 38.89,10.15C40.464,10.652 41.833,11.653 42.79,13C42.82,13.209 42.892,13.409 43,13.59L43.04,13.61ZM24.68,30.5C24.507,30.35 24.311,30.229 24.1,30.14C23.85,30.79 23.63,31.48 23.42,32.14C23.42,32.14 23.42,32.21 23.32,32.25C23.305,32.393 23.305,32.537 23.32,32.68C23.276,32.746 23.249,32.821 23.24,32.9C23.243,32.977 23.2,33.048 23.13,33.08L23.21,33.08C23.2,33.134 23.171,33.183 23.13,33.22C23.089,33.257 23.13,33.22 23.13,33.15C23.13,33.08 23.13,33.22 23.13,33.22L23.2,33.22C23.165,33.337 23.142,33.458 23.13,33.58C22.997,33.674 22.943,33.847 23,34C23.019,34.096 23.019,34.194 23,34.29C22.819,34.482 22.751,34.755 22.82,35.01C22.88,35.001 22.932,34.964 22.96,34.91C22.988,34.856 23.03,34.91 23.1,34.91C23.131,35.006 23.089,35.112 23,35.16C23.82,34.777 24.615,34.343 25.38,33.86C25.77,33.65 26.13,33.43 26.53,33.18C26.914,32.937 27.328,32.742 27.76,32.6L27.76,31.6L27.6,31.6C27.513,31.586 27.429,31.559 27.35,31.52C27.232,31.49 27.108,31.49 26.99,31.52C26.911,31.566 26.827,31.603 26.74,31.63C26.503,31.637 26.269,31.688 26.05,31.78C25.69,32.14 25.33,32.5 25,32.86C24.692,33.218 24.358,33.552 24,33.86C23.978,33.869 23.952,33.869 23.93,33.86C24.07,33.68 24.21,33.53 24.36,33.35C24.599,33.006 24.759,32.613 24.83,32.2C24.9,31.8 24.97,31.41 25.08,31.01C24.995,30.807 24.857,30.631 24.68,30.5ZM27.93,35.34C27.695,35.399 27.488,35.541 27.35,35.74C27.249,35.739 27.15,35.763 27.06,35.81C26.969,35.886 26.858,35.934 26.74,35.95C26.62,35.989 26.508,36.05 26.41,36.13C26.328,36.221 26.212,36.275 26.09,36.28L25.65,36.53C25.514,36.581 25.417,36.705 25.4,36.85C25.555,37.041 25.754,37.192 25.98,37.29C26.187,37.399 26.381,37.53 26.56,37.68C26.658,37.789 26.81,37.831 26.95,37.79C27.136,37.792 27.32,37.755 27.49,37.68C27.71,37.561 27.87,37.353 27.93,37.11C27.96,36.52 27.96,35.93 27.93,35.34ZM30.42,12.68C29.87,12.79 29.37,12.9 28.83,12.97C29.032,13.332 29.093,13.756 29,14.16C28.902,14.57 28.982,15.002 29.22,15.35C29.025,15.719 29.053,16.167 29.29,16.51C29.314,16.615 29.314,16.725 29.29,16.83C29.401,16.84 29.513,16.816 29.61,16.76C30.181,16.249 30.615,15.603 30.87,14.88C31.097,14.052 31.267,13.211 31.38,12.36C31.05,12.434 30.728,12.541 30.42,12.68ZM37.88,11.68C37.514,11.592 37.135,11.568 36.76,11.61C36.365,11.661 35.965,11.661 35.57,11.61C35.464,11.623 35.356,11.623 35.25,11.61C35.144,11.597 35.36,11.61 35.43,11.54C35.018,11.54 34.606,11.577 34.2,11.65C34.456,11.994 34.665,12.37 34.82,12.77C34.941,13.776 34.527,14.775 33.73,15.4C33.455,15.558 33.208,15.761 33,16C33.54,15.89 34.05,15.74 34.55,15.64C35.82,14.55 37.01,13.4 38.2,12.24C38.274,12.214 38.337,12.165 38.38,12.1C38.228,11.94 38.06,11.796 37.88,11.67L37.88,11.68ZM36.94,31.8C37.481,32.065 37.933,32.482 38.24,33C38.504,33.199 38.61,33.548 38.5,33.86C38.493,33.939 38.466,34.015 38.42,34.08C38.374,34.145 38.42,34.08 38.42,34.08C39.65,33.57 40.84,33.08 41.99,32.49C41.99,32.49 41.92,32.42 41.92,32.38C41.92,32.34 42.1,32.38 42.1,32.31C42.149,32.265 42.213,32.24 42.28,32.24C42.28,32.16 42.35,32.13 42.42,32.09L42.42,32C42.51,32.05 42.62,32.05 42.71,32C42.804,31.922 42.919,31.874 43.04,31.86C43.161,31.846 43.11,31.79 43.18,31.79L43.4,31.68C43.54,31.68 43.65,31.75 43.65,31.82C44.08,31.97 44.52,32.15 44.95,32.33C45.366,32.477 45.747,32.709 46.07,33.01L46.07,33.16C46.118,33.19 46.149,33.243 46.15,33.3C46.184,33.369 46.231,33.43 46.29,33.48C46.223,33.642 46.186,33.815 46.18,33.99C46.18,34.17 46.04,34.31 45.82,34.38C45.03,34.71 44.2,35.03 43.37,35.32C43.142,35.507 42.886,35.656 42.61,35.76L42.61,35.86C42.736,36.07 42.925,36.234 43.15,36.33C43.15,36.44 43.15,36.51 43.3,36.51C43.436,36.768 43.632,36.991 43.87,37.16C44.082,37.337 44.264,37.546 44.41,37.78C44.99,38.28 45.57,38.78 46.18,39.29C46.247,39.431 46.347,39.554 46.47,39.65C46.632,39.963 46.632,40.337 46.47,40.65C46.213,40.852 45.917,40.998 45.6,41.08C45.364,41.291 45.057,41.405 44.74,41.4L43.69,41.4C43.667,41.408 43.643,41.408 43.62,41.4C42.93,41.428 42.24,41.381 41.56,41.26C40.84,41.15 40.16,41.01 39.51,40.86C38.991,40.8 38.481,40.68 37.99,40.5C37.49,40.28 36.99,40.1 36.51,39.92C36.002,39.718 35.511,39.478 35.04,39.2L34.13,38.41C33.879,38.138 33.739,37.78 33.74,37.41C33.741,37.04 33.74,37.41 33.74,37.41L34.03,34.56L34.03,34.49C33.971,33.65 33.837,32.816 33.63,32C33.687,31.872 33.772,31.759 33.88,31.67C33.992,31.603 34.061,31.481 34.06,31.35C34.059,31.219 34.17,31.35 34.24,31.35C34.309,31.386 34.391,31.386 34.46,31.35C34.6,31.35 34.64,31.24 34.64,31.17C34.671,31.124 34.724,31.097 34.78,31.1L35.14,31.17C35.765,31.301 36.37,31.513 36.94,31.8ZM34.67,26.28L34.67,26.28ZM41.89,36.13L41.09,36.24C40.823,36.281 40.559,36.341 40.3,36.42C40.287,36.403 40.266,36.393 40.245,36.393C40.224,36.393 40.203,36.403 40.19,36.42C40.177,36.437 40.12,36.42 40.08,36.42L38.32,36.75C38.32,37.11 38.32,37.43 38.24,37.75C38.16,38.07 38.24,38.32 38.53,38.57C39.226,38.758 39.94,38.869 40.66,38.9L42.9,38.9C43.088,38.803 43.229,38.633 43.29,38.43C43.126,37.957 42.922,37.499 42.68,37.06C42.43,36.74 42.21,36.41 41.96,36.12L41.89,36.13ZM41.49,26.9C41.287,26.881 41.087,26.959 40.95,27.11C40.718,27.197 40.476,27.257 40.23,27.29C40.068,27.427 39.886,27.539 39.69,27.62C39.485,27.692 39.291,27.79 39.11,27.91L38.53,28.16C38.476,28.36 38.476,28.57 38.53,28.77C39.091,28.981 39.698,29.043 40.29,28.95C40.76,28.85 41.23,28.74 41.7,28.66C41.846,28.484 42.003,28.317 42.17,28.16C42.34,28.05 42.389,27.82 42.28,27.65L42.35,27.65C42.082,27.38 41.794,27.129 41.49,26.9Z" style="fill:rgb(247,113,125);fill-rule:nonzero;"/>
        <path d="M69.05,9.65C69.335,9.773 69.603,9.931 69.85,10.12C70.319,10.512 70.689,11.009 70.93,11.57C70.965,11.89 71.22,12.145 71.54,12.18C71.844,12.216 72.145,12.276 72.44,12.36C72.643,12.421 72.85,12.468 73.06,12.5C73.1,12.425 73.193,12.394 73.27,12.43C73.27,12.5 73.38,12.54 73.45,12.43C73.502,12.361 73.584,12.321 73.67,12.32C74.198,12.836 74.777,13.295 75.4,13.69C75.644,14.041 75.911,14.375 76.2,14.69C76.466,15.017 76.605,15.429 76.59,15.85C76.659,15.96 76.659,16.1 76.59,16.21C76.563,16.338 76.512,16.46 76.44,16.57C76.365,16.681 76.251,16.76 76.12,16.79C75.998,16.853 75.898,16.951 75.83,17.07C75.618,17.184 75.388,17.258 75.15,17.29C75.075,17.396 74.949,17.453 74.82,17.44C74.695,17.459 74.581,17.523 74.5,17.62C74.125,17.726 73.782,17.922 73.5,18.19C73.982,18.322 74.481,18.383 74.98,18.37C75.239,18.3 75.511,18.3 75.77,18.37C76.015,18.437 76.246,18.549 76.45,18.7L77.61,19.35L77.86,19.35C78.22,19.67 78.62,20.03 79.02,20.35C79.446,20.646 79.79,21.045 80.02,21.51C80.16,21.69 80.31,21.9 80.49,22.12C80.63,22.339 80.63,22.621 80.49,22.84C80.495,22.918 80.519,22.994 80.56,23.06C80.63,23.06 80.63,23.17 80.56,23.24C80.097,23.422 79.66,23.664 79.26,23.96C79.004,24.045 78.762,24.167 78.54,24.32C78.335,24.494 78.106,24.639 77.86,24.75C77.546,24.9 77.242,25.07 76.95,25.26C76.674,25.46 76.356,25.594 76.02,25.65C75.897,25.577 75.743,25.577 75.62,25.65C75.657,25.781 75.734,25.896 75.84,25.98C75.965,26.056 76.085,26.14 76.2,26.23C76.315,26.32 76.12,26.23 76.12,26.23C76.12,26.23 76.41,26.49 76.56,26.59C76.512,26.626 76.483,26.681 76.48,26.74L76.3,26.74C76.26,26.74 76.3,26.82 76.3,26.85C76.3,26.88 76.19,26.96 76.19,27.03C76.094,27.016 75.996,27.016 75.9,27.03C75.759,27.15 75.584,27.224 75.4,27.24C74.945,27.327 74.497,27.447 74.06,27.6C73.76,27.799 73.417,27.925 73.06,27.97C72.73,28.04 72.37,28.11 72.06,28.15C72.16,28.514 71.993,28.902 71.66,29.08C71.729,29.224 71.846,29.341 71.99,29.41C72.31,29.7 72.64,30.02 72.93,30.31C73.251,30.63 73.506,31.011 73.68,31.43C73.61,31.603 73.61,31.797 73.68,31.97C73.774,32.137 73.774,32.343 73.68,32.51C73.613,32.651 73.513,32.774 73.39,32.87C73.256,32.962 73.146,33.086 73.07,33.23C72.813,34.33 72.739,35.466 72.85,36.59C72.964,36.656 73.052,36.758 73.1,36.88C73.165,37.01 73.287,37.102 73.43,37.13C74.04,37.31 74.65,37.45 75.27,37.6C75.877,37.725 76.503,37.725 77.11,37.6C77.416,37.532 77.679,37.335 77.83,37.06C77.981,36.785 77.83,37.06 77.83,37.06C77.906,36.965 77.954,36.851 77.97,36.73C78.393,36.209 78.679,35.59 78.8,34.93L78.8,33.5C78.798,32.941 78.69,32.388 78.48,31.87C78.43,31.463 78.332,31.064 78.19,30.68C78.48,31.08 78.69,31.51 78.95,31.91C79.08,32.288 79.244,32.652 79.44,33C79.51,33.32 79.55,33.65 79.62,33.94C80.226,34.709 80.723,35.557 81.1,36.46C81.394,36.779 81.628,37.148 81.79,37.55C81.97,37.94 82.18,38.3 82.4,38.7C82.403,38.815 82.441,38.927 82.51,39.02C82.62,39.02 82.69,39.1 82.65,39.2C82.664,39.309 82.623,39.418 82.54,39.49C82.591,39.687 82.505,39.896 82.33,40C82.162,40.101 82.016,40.233 81.9,40.39C81.5,40.54 81.14,40.68 80.81,40.83C80.48,40.98 80.42,41.08 80.24,41.22C80.073,41.374 79.843,41.441 79.62,41.4C79.397,41.359 79.51,41.4 79.48,41.48C79.123,41.55 78.757,41.55 78.4,41.48C78.04,41.48 77.71,41.37 77.4,41.33C76.324,41.166 75.262,40.925 74.22,40.61C73.22,40.18 72.13,39.78 71.08,39.31C70.667,39.094 70.321,38.769 70.08,38.37C69.813,37.98 69.572,37.572 69.36,37.15C69.068,36.093 68.994,34.987 69.14,33.9C69.28,32.82 69.43,31.74 69.61,30.65C69.681,30.574 69.72,30.474 69.72,30.37C69.564,30.253 69.375,30.19 69.18,30.19C67.7,31.34 66.25,32.49 64.81,33.65C64.09,34.23 63.37,34.8 62.61,35.31C62.29,35.56 62,35.85 61.67,36.14C61.56,35.99 61.46,35.99 61.31,36.14C60.595,36.618 59.926,37.16 59.31,37.76C58.59,38.34 57.83,38.88 57.07,39.38C56.882,39.566 56.662,39.715 56.42,39.82C56.196,39.927 55.979,40.047 55.77,40.18C55.683,40.184 55.597,40.208 55.52,40.25C55.469,40.32 55.387,40.361 55.3,40.36C55.157,40.423 55.032,40.523 54.94,40.65C54.829,40.738 54.692,40.787 54.55,40.79C54.395,40.787 54.252,40.873 54.18,41.01C53.938,40.976 53.706,40.891 53.5,40.76C53.324,40.474 53.119,40.206 52.89,39.96C53.07,39.85 53.14,39.75 53.1,39.56C53.183,39.486 53.257,39.402 53.32,39.31C53.683,38.852 54.017,38.371 54.32,37.87C54.35,38.002 54.35,38.138 54.32,38.27C54.435,38.382 54.567,38.477 54.71,38.55C54.873,38.507 55.03,38.447 55.18,38.37C55.97,37.73 56.84,37.08 57.71,36.37C57.813,36.251 57.949,36.164 58.1,36.12C58.82,35.5 59.55,34.89 60.3,34.28C60.7,33.95 61.06,33.63 61.46,33.28C61.64,33.13 61.78,33.03 61.93,32.92C63.15,31.92 64.38,30.92 65.57,29.92C65.36,29.956 65.156,30.016 64.96,30.1C64.45,30.17 63.96,30.24 63.41,30.35C63.41,30.35 63.33,30.35 63.3,30.28L59.62,31.28L59.55,31.21C59.355,31.219 59.161,31.242 58.97,31.28C58.772,31.303 58.574,31.237 58.43,31.1C58.09,31.133 57.748,31.085 57.43,30.96C57.15,30.85 56.86,30.7 56.57,30.6C56.6,30.529 56.673,30.484 56.75,30.49C56.82,30.49 56.89,30.49 56.93,30.42L56.9,30.42C56.9,30.42 56.82,30.35 56.82,30.31C56.82,30.27 56.93,30.31 56.97,30.24L56.82,30.24C56.964,30.192 57.091,30.105 57.19,29.99C57.728,29.629 58.309,29.337 58.92,29.12C59.53,28.91 60.14,28.69 60.76,28.44C60.196,27.979 59.687,27.455 59.24,26.88C58.842,26.348 58.491,25.783 58.19,25.19C57.88,24.635 57.686,24.022 57.62,23.39C57.647,23.097 57.694,22.807 57.76,22.52C57.873,22.483 57.957,22.387 57.98,22.27C58.005,22.155 58.113,22.077 58.23,22.09L58.23,21.83C58.671,21.923 59.073,22.15 59.38,22.48C59.71,22.81 60.03,23.13 60.38,23.42L60.45,23.42C61.527,22.118 62.898,21.089 64.45,20.42C64.943,20.223 65.413,19.972 65.85,19.67C66.54,19.02 67.22,18.33 67.91,17.67C68.31,17.31 68.67,16.94 68.99,16.62C69.14,16.48 69.32,16.3 69.46,16.15C69.75,15.83 70.04,15.54 70.33,15.25C70.614,14.951 70.857,14.615 71.05,14.25C70.925,14.196 70.805,14.133 70.69,14.06C70.542,14.164 70.358,14.204 70.18,14.17C69.95,14.03 69.71,13.91 69.46,13.81C69.1,14.03 68.74,14.21 68.38,14.39C67.995,14.575 67.641,14.818 67.33,15.11C66.79,15.36 66.21,15.58 65.64,15.8C65.078,16.007 64.533,16.258 64.01,16.55C63.614,16.741 63.238,16.972 62.89,17.24C62.093,17.803 61.265,18.32 60.41,18.79C60.173,19.098 59.877,19.357 59.54,19.55C59.213,19.769 58.911,20.024 58.64,20.31C58.617,20.302 58.593,20.302 58.57,20.31C58.57,20.2 58.57,20.17 58.46,20.2C58.362,20.34 58.275,20.487 58.2,20.64C58.086,20.672 58.002,20.772 57.99,20.89C57.924,20.843 57.836,20.843 57.77,20.89C57.753,20.911 57.727,20.923 57.7,20.923C57.673,20.923 57.647,20.911 57.63,20.89C57.565,20.79 57.48,20.705 57.38,20.64C57.324,20.67 57.256,20.67 57.2,20.64C57.144,20.61 57.09,20.64 57.01,20.64C56.98,20.723 56.901,20.779 56.812,20.779C56.768,20.779 56.726,20.766 56.69,20.74C56.667,20.733 56.643,20.729 56.619,20.729C56.519,20.729 56.43,20.794 56.4,20.89L56.29,20.89C56.121,20.739 56.008,20.534 55.97,20.31C56.003,20.042 55.965,19.769 55.86,19.52C55.879,19.29 55.879,19.06 55.86,18.83C55.869,18.605 55.994,18.401 56.19,18.29C56.37,18.29 56.48,18.29 56.55,18.11C56.632,17.999 56.742,17.912 56.87,17.86C57.05,17.79 57.24,17.68 57.42,17.61C57.608,17.513 57.824,17.484 58.03,17.53C58.683,17.242 59.3,16.88 59.87,16.45C60.45,16.02 61.02,15.59 61.56,15.12C62.1,14.65 62.86,14 63.56,13.46C63.89,13.13 64.21,12.84 64.56,12.52C64.714,12.442 64.848,12.329 64.95,12.19C65.339,11.786 65.691,11.348 66,10.88C65.838,10.659 65.747,10.394 65.74,10.12C65.92,10.12 66.03,10.12 66.07,9.94C66.235,9.93 66.396,9.882 66.54,9.8C66.673,9.684 66.83,9.598 67,9.55C67.246,9.393 67.512,9.268 67.79,9.18C67.983,9.166 68.177,9.166 68.37,9.18C68.565,9.378 68.796,9.537 69.05,9.65ZM65.05,21.49C64.638,21.682 64.205,21.827 63.76,21.92C63.332,22.024 62.943,22.25 62.64,22.57C62.31,22.78 61.99,23 61.64,23.18C61.299,23.353 61.012,23.616 60.81,23.94C61.062,24.227 61.281,24.543 61.46,24.88C61.574,25.309 61.806,25.697 62.13,26C62.411,26.337 62.64,26.715 62.81,27.12C62.88,27.23 62.81,27.3 62.74,27.34C62.67,27.38 62.74,27.48 62.81,27.52L64.72,26.87C64.967,26.502 65.162,26.101 65.3,25.68L65.3,21.68L65.05,21.49ZM72.81,20.49C71.4,20.63 69.96,20.74 68.55,20.88C68.411,20.891 68.273,20.852 68.16,20.77L67.47,20.88C67.862,21.107 68.203,21.414 68.47,21.78C68.608,22.048 68.657,22.353 68.61,22.65C68.62,22.965 68.597,23.28 68.54,23.59C68.459,23.917 68.435,24.255 68.47,24.59C68.428,24.962 68.405,25.336 68.4,25.71C69.08,25.6 69.8,25.46 70.52,25.31C70.951,25.101 71.343,24.82 71.68,24.48C71.985,24.119 72.319,23.785 72.68,23.48C73.15,23.05 73.68,22.61 74.16,22.18C74.673,21.774 75.154,21.329 75.6,20.85C75.6,20.77 75.6,20.7 75.49,20.7C74.68,20.58 73.74,20.51 72.84,20.48L72.81,20.49Z" style="fill:rgb(247,113,125);fill-rule:nonzero;"/>
        <path d="M42.54,51.51C42.938,51.822 43.248,52.232 43.44,52.7C43.517,52.775 43.544,52.888 43.51,52.99L43.51,53.71C43.519,53.786 43.546,53.858 43.59,53.92C43.471,53.939 43.349,53.939 43.23,53.92C43.15,54.016 43.022,54.059 42.9,54.03C42.83,54.099 42.744,54.151 42.65,54.18C42.55,54.184 42.451,54.208 42.36,54.25C42.155,54.282 41.958,54.353 41.78,54.46C41.7,54.554 41.583,54.608 41.46,54.61C41.326,54.637 41.202,54.699 41.1,54.79C40.757,54.909 40.423,55.053 40.1,55.22L39.99,55.22C39.554,55.431 39.133,55.672 38.73,55.94C38.98,56.16 39.23,56.38 39.52,56.59C39.71,56.774 39.89,56.968 40.06,57.17C40.144,57.316 40.205,57.475 40.24,57.64C40.32,57.756 40.393,57.876 40.46,58C40.437,57.992 40.413,57.992 40.39,58C40.82,58.21 41.29,58.46 41.79,58.68C42.268,59.046 42.677,59.492 43,60C43.149,60.174 43.249,60.385 43.29,60.61C43.331,60.845 43.391,61.075 43.47,61.3C43.537,62.005 43.658,62.703 43.83,63.39C43.863,63.861 43.84,64.334 43.76,64.8C43.72,65.436 43.72,66.074 43.76,66.71C43.766,67.379 43.719,68.048 43.62,68.71C43.62,70.26 43.62,71.84 43.51,73.39C43.398,73.616 43.36,73.871 43.4,74.12C43.327,74.754 42.955,75.315 42.4,75.63C42.288,75.757 42.167,75.878 42.04,75.99C41.744,76.232 41.405,76.415 41.04,76.53C40.933,76.489 40.835,76.428 40.75,76.35C40.663,76.272 40.541,76.245 40.43,76.28C39.939,76.07 39.486,75.779 39.09,75.42C38.701,75.05 38.263,74.734 37.79,74.48C37.4,74.15 37,73.86 36.6,73.48C36.422,73.556 36.282,73.7 36.21,73.88C36.147,73.91 36.094,73.959 36.06,74.02C35.968,74.205 35.834,74.365 35.67,74.49C35.34,74.89 34.98,75.32 34.67,75.76C34.627,75.843 34.565,75.915 34.49,75.97L36.49,76.62C36.569,76.692 36.673,76.732 36.78,76.73C39.381,77.046 41.96,77.527 44.5,78.17C44.797,78.34 45.112,78.474 45.44,78.57C45.753,78.654 46.045,78.8 46.3,79C46.555,79.2 46.3,79.07 46.41,79.15C46.679,79.382 46.97,79.586 47.28,79.76C47.345,79.815 47.385,79.895 47.39,79.98C47.308,80.027 47.244,80.101 47.21,80.19C47.191,80.283 47.109,80.35 47.014,80.35C46.992,80.35 46.971,80.347 46.95,80.34C46.845,80.436 46.7,80.477 46.56,80.45C46.418,80.446 46.287,80.53 46.23,80.66C45.76,80.88 45.33,81.13 44.9,81.38C44.699,81.412 44.504,81.473 44.32,81.56C44.139,81.644 43.937,81.672 43.74,81.64C43.265,81.74 42.775,81.74 42.3,81.64C41.836,81.745 41.354,81.745 40.89,81.64C40.437,81.462 39.999,81.248 39.58,81C39.089,80.823 38.609,80.619 38.14,80.39C37.05,79.89 35.97,79.39 34.89,79.02C34.149,78.623 33.376,78.289 32.58,78.02C30.735,77.398 28.821,77.009 26.88,76.86C25.591,76.899 24.31,77.08 23.06,77.4C22.77,77.48 22.48,77.51 22.19,77.58C21.909,77.616 21.659,77.778 21.51,78.02C21.375,78.051 21.248,78.113 21.14,78.2C20.586,78.308 20.012,78.177 19.56,77.84C19.094,77.448 18.681,76.997 18.33,76.5C18.293,76.407 18.293,76.303 18.33,76.21C18.333,76.104 18.298,76.001 18.23,75.92L18.37,75.92L18.37,75.82C18.45,75.851 18.54,75.851 18.62,75.82C18.55,75.74 18.48,75.71 18.41,75.64L18.77,75.74C18.73,75.602 18.654,75.478 18.55,75.38C18.446,75.282 18.55,75.38 18.48,75.38C18.41,75.38 18.59,75.38 18.62,75.38C18.606,75.321 18.606,75.259 18.62,75.2C18.77,75.204 18.917,75.242 19.05,75.31C19.103,75.364 19.175,75.394 19.25,75.394C19.325,75.394 19.397,75.364 19.45,75.31C19.727,75.136 20.014,74.979 20.31,74.84C21.174,74.09 21.875,73.171 22.37,72.14C21.885,71.839 21.458,71.452 21.11,71C20.745,70.528 20.576,69.933 20.64,69.34C20.71,68.91 20.75,68.48 20.82,68.04C20.439,68.237 20.1,68.505 19.82,68.83L19.24,68.83C19.131,68.818 19.023,68.859 18.95,68.94C18.802,68.967 18.648,68.939 18.52,68.86C18.393,68.788 18.259,68.727 18.12,68.68C17.859,68.397 17.618,68.097 17.4,67.78C17.4,67.64 17.29,67.49 17.22,67.31C17.131,67.181 17.131,67.009 17.22,66.88C17.4,66.7 17.54,66.48 17.72,66.3C17.888,66.129 18.012,65.92 18.08,65.69C18.19,65.69 18.26,65.58 18.26,65.51C18.601,65.563 18.903,65.76 19.09,66.05C20.006,65.56 20.837,64.925 21.55,64.17C21.608,64.094 21.656,64.01 21.69,63.92C21.713,63.817 21.804,63.742 21.91,63.74C21.928,63.668 21.928,63.592 21.91,63.52C21.98,63.52 21.98,63.42 21.91,63.34C21.968,63.291 22.044,63.266 22.12,63.27C22.23,63.27 22.3,63.2 22.3,63.09L22.3,63C22.38,63.07 22.41,63.07 22.48,63C22.474,62.876 22.546,62.76 22.66,62.71C22.88,62.64 23.06,62.53 23.24,62.46C23.465,62.53 23.696,62.577 23.93,62.6C24.141,62.673 24.359,62.723 24.58,62.75C24.795,62.816 25,62.91 25.19,63.03C25.37,63.14 25.51,63.25 25.66,63.32C25.709,63.435 25.709,63.565 25.66,63.68C25.754,63.709 25.84,63.761 25.91,63.83C25.828,64.06 25.694,64.269 25.52,64.44C25.324,64.675 25.153,64.93 25.01,65.2C24.906,65.498 24.735,65.768 24.51,65.99C24.4,66.319 24.253,66.635 24.07,66.93C23.914,67.252 23.783,67.587 23.68,67.93C23.652,68.283 23.602,68.634 23.53,68.98C23.48,69.338 23.48,69.702 23.53,70.06C23.668,70.213 23.864,70.304 24.07,70.31C24.286,70.165 24.561,70.139 24.8,70.24L25.48,70.53C26.02,70.82 26.56,71.11 27.07,71.36C27.245,71.421 27.339,71.614 27.28,71.79L27.5,71.79C27.55,71.809 27.584,71.858 27.584,71.912C27.584,71.932 27.579,71.952 27.57,71.97C27.587,72.015 27.632,72.043 27.68,72.04C27.552,71.987 27.408,71.987 27.28,72.04C27.32,72.117 27.37,72.187 27.43,72.25C27.47,72.303 27.47,72.377 27.43,72.43C27.33,72.482 27.245,72.558 27.18,72.65C27.248,72.644 27.31,72.692 27.32,72.76C27.33,72.828 27.32,72.76 27.32,72.76C27.303,72.832 27.238,72.883 27.164,72.883C27.142,72.883 27.12,72.879 27.1,72.87C27.03,72.87 26.99,72.87 26.99,72.94C26.99,73.01 26.92,72.94 26.85,72.94C26.566,73.015 26.313,73.18 26.13,73.41C25.932,73.64 25.686,73.824 25.41,73.95C25.328,73.974 25.269,74.045 25.26,74.13C26.629,74.166 27.993,74.31 29.34,74.56C30.941,74.82 32.519,75.205 34.06,75.71C34.1,75.244 34.1,74.776 34.06,74.31C34.025,73.854 34.025,73.396 34.06,72.94L34.06,71.57C33.625,71.573 33.195,71.669 32.8,71.85C32.405,72.06 32.021,72.29 31.65,72.54C31.699,72.655 31.699,72.785 31.65,72.9C31.609,73.016 31.609,73.144 31.65,73.26C31.494,73.28 31.336,73.28 31.18,73.26C31.079,73.268 30.981,73.295 30.89,73.34C30.62,73.34 30.35,73.303 30.09,73.23C29.663,72.842 29.299,72.39 29.01,71.89C28.731,71.385 28.629,70.8 28.72,70.23C28.8,69.3 28.83,68.32 28.9,67.35C28.951,66.343 29.071,65.341 29.26,64.35C29.37,63.81 29.48,63.23 29.59,62.66C29.694,62.117 29.876,61.591 30.13,61.1C30.24,61.18 30.31,61.1 30.35,61.03C30.388,60.947 30.469,60.893 30.56,60.89C30.672,60.729 30.769,60.558 30.85,60.38C30.96,60.209 31.157,60.112 31.36,60.13C31.573,60.049 31.76,59.91 31.9,59.73C32.058,59.577 32.225,59.433 32.4,59.3C32.98,58.94 33.52,58.58 34.06,58.22C34.637,57.888 35.121,57.417 35.47,56.85C34.839,56.502 34.167,56.234 33.47,56.05C32.789,55.905 32.132,55.662 31.52,55.33L31.34,55.33C31.446,55.245 31.568,55.183 31.7,55.15C31.796,55.12 31.861,55.031 31.861,54.931C31.861,54.907 31.857,54.883 31.85,54.86C31.969,54.882 32.091,54.882 32.21,54.86C32.197,54.814 32.197,54.766 32.21,54.72C32.266,54.726 32.319,54.751 32.36,54.79C33.025,54.717 33.695,54.717 34.36,54.79C35.024,54.86 35.692,54.893 36.36,54.89C37.19,54.159 37.95,53.352 38.63,52.48C38.06,52.55 37.44,52.66 36.87,52.73C36.764,52.69 36.646,52.69 36.54,52.73C36.446,52.736 36.358,52.775 36.29,52.84C36.222,52.905 36.29,52.84 36.22,52.77C35.291,53.142 34.287,53.289 33.29,53.2C32.609,53.238 31.936,53.369 31.29,53.59L30.61,53.59C30.39,53.593 30.182,53.484 30.06,53.3C30.051,53.183 30.109,53.07 30.21,53.01C30.32,53.01 30.35,52.87 30.35,52.73C30.64,52.58 30.93,52.44 31.22,52.26L33.38,51.26C33.78,51.12 34.14,50.94 34.54,50.76C34.687,50.677 34.845,50.616 35.01,50.58C36.004,50.157 37.045,49.852 38.11,49.67C38.22,49.6 38.36,49.57 38.51,49.49C38.59,49.45 38.674,49.416 38.76,49.39C39.013,49.312 39.286,49.337 39.52,49.46C39.753,49.581 39.994,49.688 40.24,49.78L41.5,50.54C41.74,50.89 42.14,51.22 42.54,51.51ZM23.35,53.31C23.811,53.534 24.245,53.813 24.64,54.14C25.066,54.435 25.374,54.871 25.51,55.37C25.574,55.48 25.612,55.603 25.62,55.73C25.62,55.846 25.659,55.959 25.73,56.05C25.635,56.206 25.635,56.404 25.73,56.56C25.8,56.709 25.8,56.881 25.73,57.03C25.782,57.09 25.782,57.18 25.73,57.24C25.714,57.299 25.714,57.361 25.73,57.42C25.77,57.598 25.77,57.782 25.73,57.96C25.674,58.125 25.674,58.305 25.73,58.47C25.718,58.562 25.68,58.649 25.62,58.72C25.544,58.766 25.501,58.852 25.51,58.94C25.475,59.116 25.37,59.271 25.22,59.37C25.08,59.48 24.9,59.59 24.75,59.7C24.484,59.953 24.109,60.058 23.75,59.98C23.373,59.952 23.001,59.881 22.64,59.77C22.266,59.835 21.9,59.942 21.55,60.09C21.351,60.146 21.167,60.245 21.01,60.38L20.87,60.38C20.901,60.241 20.975,60.115 21.08,60.02C21.176,59.915 21.251,59.793 21.3,59.66C21.452,59.542 21.575,59.392 21.66,59.22C21.479,59.109 21.311,58.979 21.16,58.83C21.266,58.376 21.337,57.915 21.37,57.45C21.314,56.938 21.143,56.446 20.87,56.01L20.07,55.58C19.794,55.408 19.55,55.187 19.35,54.93L19.35,54.83C19.71,54.46 20.07,54.1 20.4,53.71C20.512,53.659 20.619,53.599 20.72,53.53C20.999,53.286 21.316,53.089 21.66,52.95C21.881,52.95 22.101,52.988 22.31,53.06C22.532,53.126 22.76,53.173 22.99,53.2C23.078,53.303 23.219,53.346 23.35,53.31ZM35.79,58.07C35.473,58.073 35.163,58.159 34.89,58.32C34.615,58.474 34.323,58.595 34.02,58.68C33.347,59.065 32.708,59.507 32.11,60C32.016,60.196 31.867,60.359 31.68,60.47C31.509,60.597 31.382,60.776 31.32,60.98L31.32,61.41C31.252,61.517 31.227,61.646 31.25,61.77C31.305,61.873 31.305,61.997 31.25,62.1C31.173,62.831 31.136,63.565 31.14,64.3C31.058,65.632 31.058,66.968 31.14,68.3L31.14,68.74C31.06,69.327 31.06,69.923 31.14,70.51C30.965,70.675 30.92,70.937 31.03,71.15C30.977,71.373 31.016,71.607 31.14,71.8C31.277,71.985 31.375,72.196 31.43,72.42C31.751,72.225 32.041,71.982 32.29,71.7C32.54,71.41 32.83,71.15 33.08,70.9C33.33,70.65 33.52,70.4 33.73,70.14L33.73,70C33.362,69.857 32.974,69.769 32.58,69.74C32.311,69.642 32.033,69.572 31.75,69.53C31.542,69.364 31.392,69.136 31.32,68.88L31.39,68.88L31.39,68.52C31.39,68.49 31.47,68.45 31.47,68.52L31.47,68.37L31.57,68.37C31.57,68.37 31.65,68.26 31.65,68.22C31.65,68.18 31.79,68.22 31.79,68.12C31.79,68.02 31.86,68.01 31.93,68.01C31.93,67.83 31.93,67.76 32.11,67.72C32.24,67.693 32.365,67.646 32.48,67.58L32.69,67.58C33.08,67.328 33.402,66.984 33.63,66.58C33.63,65.97 33.63,65.36 33.7,64.74L33.59,64.74C33.12,64.85 32.66,64.99 32.19,65.1C31.969,65.055 31.752,64.995 31.54,64.92C31.621,64.776 31.718,64.642 31.83,64.52C32.467,64.055 33.135,63.634 33.83,63.26L33.83,61.82C33.778,61.751 33.696,61.711 33.61,61.71C33.524,61.684 33.456,61.616 33.43,61.53C33.322,61.612 33.2,61.673 33.07,61.71C32.82,61.78 32.6,61.63 32.46,61.35C32.953,60.81 33.53,60.354 34.17,60C34.82,59.68 35.47,59.35 36.12,59.06C36.44,58.95 36.73,58.85 37.05,58.77C37.38,58.685 37.699,58.56 38,58.4C37.911,58.35 37.812,58.322 37.71,58.32C37.604,58.323 37.501,58.288 37.42,58.22C37.103,58.095 36.757,58.057 36.42,58.11C36.242,57.96 35.985,57.944 35.79,58.07ZM39.25,60.07L38.13,60.18L38.13,60.11C37.753,60.147 37.379,60.207 37.01,60.29C36.903,60.426 36.766,60.536 36.61,60.61C36.451,60.68 36.315,60.795 36.22,60.94C36.541,61.207 36.788,61.551 36.94,61.94C37.16,62.05 37.41,62.12 37.59,62.2C37.913,62.288 38.218,62.434 38.49,62.63C38.531,62.714 38.616,62.768 38.71,62.77C38.805,62.812 38.89,62.874 38.96,62.95C39.11,63.036 39.254,63.133 39.39,63.24L39.39,63.31C39.39,63.31 39.32,63.39 39.25,63.31C39.25,63.42 39.25,63.53 39.39,63.56C39.489,63.621 39.567,63.712 39.61,63.82C39.494,63.896 39.374,63.967 39.25,64.03C39.17,64.13 39.048,64.186 38.92,64.18C38.854,64.252 38.766,64.301 38.67,64.32C38.582,64.311 38.496,64.354 38.45,64.43L38.45,64.36L38.38,64.36C38.315,64.46 38.23,64.545 38.13,64.61C38.02,64.68 37.95,64.75 37.8,64.86C37.697,64.936 37.564,64.962 37.44,64.93C37.234,64.885 37.018,64.913 36.83,65.01C36.83,65.4 36.72,65.8 36.69,66.16C36.843,66.196 37.003,66.155 37.12,66.05C37.243,65.977 37.379,65.93 37.52,65.91C38.206,66.203 38.874,66.537 39.52,66.91C39.635,67.069 39.801,67.186 39.99,67.24L39.99,66.99C40.144,64.777 40.097,62.555 39.85,60.35C39.679,60.203 39.472,60.103 39.25,60.06L39.25,60.07ZM39.76,68.58C39.674,68.636 39.572,68.66 39.47,68.65C39.4,68.58 39.36,68.65 39.33,68.65C39.157,68.636 38.983,68.66 38.82,68.72C38.613,68.748 38.409,68.795 38.21,68.86C37.986,68.971 37.74,69.032 37.49,69.04C37.24,69.152 37.007,69.3 36.8,69.48C36.8,69.87 36.8,70.27 36.73,70.7C36.652,71.152 36.629,71.612 36.66,72.07C36.69,72.164 36.69,72.266 36.66,72.36C36.646,72.457 36.706,72.551 36.8,72.58C37.121,72.545 37.437,72.471 37.74,72.36C38.063,72.249 38.399,72.178 38.74,72.15C39.225,71.716 39.573,71.149 39.74,70.52C39.934,69.913 40.022,69.277 40,68.64C39.94,68.5 39.87,68.5 39.76,68.57L39.76,68.58Z" style="fill:rgb(247,113,125);fill-rule:nonzero;"/>
        <path d="M59.85,53.2C60.218,53.693 60.553,54.211 60.85,54.75C61.363,55.745 61.278,56.947 60.63,57.86C60.565,58.109 60.412,58.326 60.2,58.47C60.053,58.459 59.908,58.51 59.8,58.61C59.66,58.72 59.55,58.68 59.44,58.5C59.316,58.532 59.183,58.506 59.08,58.43C58.978,58.339 58.822,58.339 58.72,58.43C58.586,58.204 58.332,58.075 58.07,58.1C58.07,58.03 58,58 57.96,58C57.492,58.012 57.049,58.218 56.74,58.57C56.41,58.93 56.09,59.29 55.8,59.66C55.511,60.054 55.392,60.548 55.47,61.03C55.473,62.504 56.151,63.899 57.31,64.81C58.91,66.147 60.223,67.793 61.17,69.65C61.989,70.501 62.267,71.741 61.89,72.86C61.849,73.196 61.789,73.53 61.71,73.86C61.631,74.19 61.71,73.93 61.61,73.86C61.51,73.79 61.53,73.86 61.5,73.86L61.25,74C61.154,74.028 61.091,74.121 61.1,74.22C61.268,74.339 61.426,74.473 61.57,74.62C63.544,74.42 65.535,74.491 67.49,74.83C69.43,75.19 71.35,75.63 73.29,76.17C73.83,76.38 74.38,76.56 74.92,76.71C75.461,76.854 76.021,76.914 76.58,76.89C77.19,77.03 77.8,77.18 78.45,77.36C79.07,77.503 79.698,77.61 80.33,77.68C80.932,77.804 81.524,77.975 82.1,78.19C82.299,78.105 82.532,78.163 82.67,78.33C82.825,78.468 83.01,78.567 83.21,78.62C83.391,78.699 83.524,78.858 83.57,79.05C83.601,79.165 83.575,79.288 83.5,79.38C83.421,79.463 83.36,79.562 83.32,79.67C83.18,79.767 83.019,79.829 82.85,79.85C82.678,79.842 82.506,79.876 82.35,79.95C82.075,79.987 81.805,80.061 81.55,80.17C81.34,80.302 81.11,80.4 80.87,80.46C80.51,80.57 80.15,80.68 79.87,80.75C79.677,80.866 79.472,80.964 79.26,81.04C79.067,81.025 78.873,81.025 78.68,81.04C78.454,81.085 78.22,81.071 78,81C76.969,80.814 75.963,80.512 75,80.1C74.027,79.676 73.025,79.325 72,79.05L69,78.19C68.016,77.857 67.015,77.58 66,77.36C63.918,77.058 61.813,76.938 59.71,77C59.495,77.037 59.301,77.155 59.17,77.33C58.99,77.51 58.88,77.69 58.74,77.83C58.695,78.113 58.596,78.384 58.45,78.63C58.23,78.74 57.94,78.84 57.65,78.99C57.33,78.92 57,78.88 56.65,78.81C56.307,78.752 55.998,78.571 55.78,78.3C55.5,78.09 55.17,77.91 54.85,77.69C54.511,77.487 54.215,77.218 53.98,76.9C53.976,76.512 54.119,76.137 54.38,75.85C54.636,75.566 54.854,75.25 55.03,74.91C55.13,74.879 55.209,74.8 55.24,74.7C55.33,74.752 55.44,74.752 55.53,74.7C55.605,74.623 55.718,74.596 55.82,74.63C55.993,74.633 56.159,74.697 56.29,74.81C56.434,74.915 56.612,74.965 56.79,74.95C57.287,74.441 57.633,73.804 57.79,73.11C57.973,72.423 58.044,71.71 58,71C57.742,70.298 57.406,69.628 57,69L56,67.2C55.381,66.523 54.914,65.722 54.63,64.85C54.36,63.981 54.36,63.049 54.63,62.18L54.63,61.86C54.667,61.899 54.717,61.924 54.77,61.93C54.88,61.703 54.955,61.46 54.99,61.21C55.025,60.96 54.99,61.32 54.99,61.35C55.146,60.858 55.257,60.352 55.32,59.84C55.21,59.84 55.17,59.7 55.21,59.55C55.209,59.409 55.247,59.271 55.32,59.15C55.749,58.418 56.031,57.61 56.15,56.77C56.266,55.935 56.326,55.093 56.33,54.25C56.439,53.946 56.439,53.614 56.33,53.31C56.365,53.023 56.274,52.735 56.08,52.52C55.886,52.305 56.08,52.44 56.19,52.37C56.229,52.333 56.254,52.283 56.26,52.23L56.91,51.79C57.12,51.624 57.42,51.624 57.63,51.79C57.892,51.961 58.17,52.105 58.46,52.22C59.008,52.406 59.491,52.746 59.85,53.2ZM77.35,51.07C77.514,51.334 77.695,51.588 77.89,51.83C77.887,51.981 77.925,52.129 78,52.26C77.865,52.986 77.781,53.722 77.75,54.46C77.67,55.15 77.6,55.87 77.46,56.56C77.387,56.976 77.35,57.398 77.35,57.82C77.378,58.261 77.317,58.703 77.17,59.12C77.17,59.33 77.17,59.59 77.1,59.8C78.247,60.269 79.326,60.887 80.31,61.64C81.011,62.081 81.592,62.689 82,63.41C81.999,63.566 82.052,63.718 82.15,63.84C82.261,63.97 82.288,64.153 82.22,64.31C82.15,64.46 82.08,64.53 81.97,64.56L81.64,64.78C81.545,65.306 81.545,65.844 81.64,66.37C81.675,66.899 81.675,67.431 81.64,67.96C81.691,68.745 81.63,69.532 81.46,70.3C81.32,71.06 81.21,71.85 81.14,72.65C80.962,73.251 80.692,73.821 80.34,74.34C80.341,74.652 80.243,74.957 80.06,75.21C79.84,75.46 79.66,75.68 79.48,75.86L78.65,76.25C78.356,76.385 78.023,76.414 77.71,76.33C77.454,76.294 77.2,76.243 76.95,76.18C76.695,76.105 76.469,75.955 76.3,75.75C75.746,75.004 75.119,74.314 74.43,73.69L72.37,71.69C72.302,71.538 72.218,71.394 72.12,71.26C72.022,71.126 72.19,71.26 72.23,71.33C72.27,71.4 72.23,71.26 72.23,71.26C72.23,71.26 72.23,71.19 72.16,71.15C72.73,71.4 73.35,71.66 73.96,71.95C74.595,72.204 75.278,72.313 75.96,72.27C76.029,72.257 76.101,72.257 76.17,72.27C76.249,72.2 76.336,72.139 76.43,72.09C76.815,71.74 77.152,71.34 77.43,70.9C77.708,70.456 77.857,69.944 77.86,69.42C78.048,67.062 78.095,64.694 78,62.33C77.82,62.18 77.67,62.04 77.49,61.9C77.342,61.746 77.133,61.665 76.92,61.68L75.8,61.9C75.568,61.867 75.331,61.891 75.11,61.97L74.46,62.08C74.082,62.101 73.707,62.011 73.38,61.82C72.813,61.96 72.233,62.047 71.65,62.08L70.17,62.62C69.87,62.846 69.531,63.016 69.17,63.12C68.818,63.228 68.537,63.495 68.41,63.84C67.98,64.31 67.51,64.75 67.08,65.21C66.614,65.647 66.105,66.036 65.56,66.37C65.349,66.622 65.31,66.978 65.46,67.27L65.96,68.21C65.98,68.57 65.98,68.93 65.96,69.29C65.932,69.627 65.97,69.967 66.07,70.29C66.119,70.513 66.218,70.722 66.36,70.9C66.521,71.097 66.622,71.337 66.65,71.59C66.54,71.59 66.51,71.59 66.54,71.69C66.57,71.79 66.54,71.87 66.54,71.91C66.446,71.939 66.386,72.033 66.4,72.13C66.38,72.273 66.38,72.417 66.4,72.56C66.402,72.723 66.364,72.885 66.29,73.03C65.883,73.17 65.43,73.087 65.1,72.81C64.914,72.5 64.681,72.22 64.41,71.98C64.15,71.685 63.944,71.346 63.8,70.98C63.872,71.007 63.946,71.03 64.02,71.05C63.499,69.604 63.408,68.037 63.76,66.54C63.756,66.404 63.81,66.273 63.91,66.18C64.022,66.08 64.066,65.923 64.02,65.78C64.09,65.78 64.09,65.71 64.09,65.64C64.456,65.716 64.798,65.877 65.09,66.11C65.502,65.617 65.864,65.085 66.17,64.52C66.529,63.977 66.941,63.472 67.4,63.01C67.23,62.529 66.987,62.077 66.68,61.67C66.39,61.24 66.1,60.84 65.85,60.44C65.418,59.889 65.202,59.199 65.24,58.5C65.241,57.788 65.349,57.08 65.56,56.4C65.752,56.306 65.879,56.114 65.89,55.9C65.89,55.65 66.07,55.57 66.32,55.65C66.459,55.82 66.567,56.013 66.64,56.22C66.683,56.421 66.772,56.609 66.9,56.77C67.407,57.313 67.875,57.891 68.3,58.5C68.767,59.091 69.107,59.772 69.3,60.5C69.416,60.696 69.442,60.934 69.37,61.15C69.59,61.161 69.809,61.109 70,61C70.084,60 70.057,58.994 69.92,58C69.92,57.53 69.85,57 69.81,56.56C69.649,56.298 69.458,56.056 69.24,55.84C69.295,55.813 69.329,55.757 69.329,55.696C69.329,55.67 69.323,55.643 69.31,55.62C69.441,55.621 69.563,55.552 69.63,55.44C69.686,55.319 69.792,55.227 69.92,55.19C69.902,55.086 69.931,54.98 70,54.9C70.103,54.851 70.2,54.791 70.29,54.72C70.4,54.602 70.538,54.513 70.69,54.46C70.862,54.43 71.023,54.358 71.16,54.25C71.66,54.43 72.16,54.57 72.71,54.75C73.238,54.933 73.727,55.215 74.15,55.58C74.33,54.39 74.47,53.2 74.62,52.01C74.161,51.832 73.66,51.794 73.18,51.9C72.71,52.01 72.18,52.08 71.73,52.16C71.737,52.134 71.737,52.106 71.73,52.08C71.94,51.87 72.16,51.69 72.34,51.51L72.34,51.43C72.34,51.35 72.42,51.36 72.42,51.33C72.42,51.3 72.34,51.33 72.34,51.33L73.86,50.33C74.337,50.024 74.911,49.906 75.47,50L76.66,50.61C76.934,50.683 77.177,50.845 77.35,51.07ZM76.56,66.19C76.698,66.384 76.698,66.646 76.56,66.84C76.417,67.128 76.22,67.386 75.98,67.6C75.763,67.83 75.591,68.098 75.47,68.39C75.33,68.61 75.19,68.79 75.08,69C75.131,69.089 75.203,69.165 75.29,69.22C75.4,69.22 75.47,69.29 75.47,69.4C75.73,69.62 75.98,69.8 76.27,70.01C76.214,70.11 76.19,70.225 76.2,70.34C76.2,70.45 76.12,70.48 75.98,70.48C75.698,70.491 75.418,70.541 75.15,70.63C74.894,70.633 74.638,70.667 74.39,70.73C74.266,70.675 74.124,70.675 74,70.73C73.873,70.793 73.739,70.84 73.6,70.87C73.231,70.728 72.835,70.666 72.44,70.69C72.072,70.704 71.704,70.642 71.36,70.51C71.14,70.576 70.901,70.485 70.78,70.29C70.754,70.08 70.667,69.881 70.53,69.72C70.42,69.54 70.53,69.39 70.68,69.28C70.703,69.149 70.779,69.033 70.89,68.96C70.985,68.897 71.072,68.823 71.15,68.74C71.72,67.84 72.3,66.94 72.88,66C72.875,65.892 72.915,65.787 72.99,65.71C73.064,65.649 73.102,65.555 73.09,65.46C72.837,65.204 72.513,65.03 72.16,64.96C71.343,65.226 70.601,65.686 70,66.3C69.822,66.564 69.687,66.854 69.6,67.16C69.796,67.353 69.964,67.571 70.1,67.81C70.23,68.071 70.23,68.379 70.1,68.64C70.178,69.084 70.298,69.519 70.46,69.94C70.37,70.147 70.37,70.383 70.46,70.59C70.591,70.796 70.676,71.028 70.71,71.27C70.78,71.53 70.64,71.71 70.38,71.82C70.246,71.801 70.114,71.764 69.99,71.71C69.866,71.641 69.714,71.641 69.59,71.71C69.095,71.416 68.704,70.976 68.47,70.45C68.299,70.323 68.172,70.144 68.11,69.94C68.044,69.74 67.96,69.546 67.86,69.36C67.321,68.382 67.141,67.246 67.35,66.15C67.414,65.955 67.586,65.814 67.79,65.79C68.188,65.956 68.561,66.174 68.9,66.44C69.944,65.1 71.455,64.2 73.13,63.92C73.695,63.981 74.237,64.176 74.71,64.49C75.191,64.832 75.649,65.206 76.08,65.61C76.27,65.79 76.41,66 76.56,66.19ZM73.89,57L73.81,57C73.722,57.148 73.547,57.222 73.38,57.18C72.989,57.374 72.555,57.463 72.12,57.44C72.2,57.776 72.161,58.13 72.01,58.44C72.01,58.73 71.94,59.02 71.9,59.27C71.832,59.501 71.861,59.75 71.98,59.96C72.515,59.852 73.056,59.779 73.6,59.74C73.598,59.673 73.624,59.608 73.67,59.56L73.89,57Z" style="fill:rgb(247,113,125);fill-rule:nonzero;"/>
        <path d="M50.05,4.67C47.565,4.226 45.028,4.149 42.52,4.44C42.12,4.44 41.71,4.52 41.3,4.58L40,4.79C39.13,4.91 38.26,5.14 37.36,5.34C35.533,5.812 33.742,6.414 32,7.14C31.08,7.48 30.2,7.94 29.3,8.35C28.4,8.76 27.53,9.25 26.7,9.77C25.025,10.736 23.418,11.815 21.89,13C19.357,14.989 17.013,17.208 14.89,19.63L14.42,20.19L13.99,20.75L13.17,21.81C12.67,22.53 12.17,23.19 11.76,23.81C11.35,24.43 10.95,25.05 10.6,25.62L9.6,27.2C9.14,28.04 9.38,27.46 10.24,25.98C11.566,23.718 13.107,21.588 14.84,19.62C15.32,19.05 15.84,18.45 16.38,17.86L17.23,16.94L18.16,16.03C18.77,15.39 19.48,14.8 20.16,14.16C20.52,13.85 20.9,13.54 21.29,13.23L21.87,12.75L22.48,12.29C20.344,13.613 18.314,15.101 16.41,16.74C14.791,18.153 13.258,19.663 11.82,21.26C10.304,23.522 8.986,25.911 7.88,28.4C5.363,33.936 3.982,39.921 3.82,46C3.641,52.101 4.618,58.182 6.7,63.92C7.768,66.845 9.146,69.648 10.81,72.28C12.461,74.89 14.313,77.368 16.35,79.69C3.399,66.263 -0.357,46.329 6.82,29.11C6.61,29.56 6.4,30 6.18,30.43C2.619,39.416 1.893,49.28 4.1,58.69C4.33,59.48 4.53,60.29 4.76,61.09C4.99,61.89 5.23,62.7 5.51,63.5C5.22,62.72 5,61.91 4.74,61.12C4.48,60.33 4.32,59.5 4.1,58.69L3.74,57.13L3.55,56.35L3.4,55.57L3.1,54L2.86,52.4C2.86,52.13 2.79,51.86 2.75,51.59C2.71,51.32 2.75,51.05 2.67,50.78L2.52,49.12C2.52,48 2.39,46.86 2.44,45.69C2.609,42.654 3.064,39.64 3.8,36.69C3.95,36.12 4.1,35.57 4.27,35.02C4.44,34.47 4.65,33.96 4.85,33.44L5.15,32.67L5.49,31.91C5.72,31.41 5.94,30.91 6.18,30.4L7.01,28.4L7.94,26.48C8.09,26.09 8.28,25.69 8.48,25.28C8.233,25.535 8.002,25.805 7.79,26.09C7.51,26.47 7.21,26.96 6.85,27.54C5.979,29.01 5.213,30.541 4.56,32.12C3.683,34.253 2.981,36.453 2.46,38.7C1.87,41.207 1.492,43.759 1.33,46.33C1.181,48.964 1.238,51.605 1.5,54.23C1.783,56.653 2.237,59.052 2.86,61.41C3.704,64.518 4.912,67.516 6.46,70.34C7.75,72.441 9.273,74.39 11,76.15C12.7,77.92 14.56,79.59 16.55,81.45C16.89,81.75 17.2,82.06 17.49,82.36C17.78,82.66 18.09,82.94 18.38,83.21C18.67,83.48 18.94,83.74 19.23,83.98C19.513,84.202 19.814,84.399 20.13,84.57C20.643,84.699 21.133,84.908 21.58,85.19C23.06,86.19 24.48,87.33 25.92,88.25L26.99,88.91C27.34,89.12 27.71,89.3 28.06,89.48C28.41,89.66 28.76,89.81 29.06,89.95C29.36,90.09 29.76,90.19 30.06,90.29C31.448,91.045 32.746,91.954 33.93,93C35.33,94.09 36.68,95 36.93,94.81C37.93,94.19 38.04,94.09 38.5,94.32C39.598,94.961 40.805,95.395 42.06,95.6C42.595,95.64 43.132,95.613 43.66,95.52C44.322,95.424 44.993,95.4 45.66,95.45C47.121,95.766 48.622,95.854 50.11,95.71L52.21,95.45C52.99,95.34 53.86,95.18 54.94,95.05C55.74,94.89 56.46,94.75 57.11,94.64C57.76,94.53 58.36,94.4 58.92,94.31L59.72,94.18L60.48,94.03L61.9,93.76C62.844,93.56 63.773,93.292 64.68,92.96C65.819,92.515 66.908,91.952 67.93,91.28C68.08,91.19 68.7,90.89 69.51,90.42C69.91,90.18 70.37,89.94 70.85,89.65L72.3,88.75C72.79,88.46 73.24,88.11 73.68,87.82C74.12,87.53 74.52,87.25 74.85,86.99L76,86.1C78.451,84.513 80.706,82.644 82.72,80.53C84.53,78.7 86.16,77.01 88.27,75.23C89.7,72.43 91.59,69.42 93.27,66.15C94.943,63.01 96.143,59.641 96.83,56.15C97.38,52.88 97.71,50.56 98.08,48.32L98.35,46.63C98.42,46.06 98.5,45.48 98.57,44.88C98.64,44.28 98.69,43.65 98.74,42.99C98.74,42.66 98.74,42.32 98.81,41.99C98.88,41.66 98.81,41.28 98.81,40.9C98.776,40.15 98.703,39.402 98.59,38.66C98.497,38.085 98.454,37.503 98.46,36.92C98.365,36.153 98.156,35.405 97.84,34.7C97.441,33.839 97.107,32.95 96.84,32.04L97.42,32.3C97.28,31.74 96.99,30.63 96.85,30.07C96.71,29.51 96.85,29.6 97.08,29.68C97.48,29.84 97.89,30.01 97.74,28.96C97.118,26.487 96.236,24.087 95.11,21.8C94.4,20.72 93.6,19.71 92.82,18.71C92.04,17.71 91.17,16.79 90.29,15.92C89.989,15.957 89.684,15.908 89.41,15.78C88.87,15.27 88.3,14.78 87.75,14.33C87.12,14.33 86.82,14.76 86.4,14.76C85.89,15.2 84.91,15.11 84.02,15.1C83.13,15.09 82.31,15.15 82.1,15.81C82.399,16.537 82.811,17.211 83.32,17.81C83.63,18.31 83.97,18.81 84.26,19.35C84.515,19.815 84.722,20.304 84.88,20.81C84.95,21.22 84.07,20.81 83.48,20.81C84.11,21.64 84.34,22.15 84.29,22.41C84.24,22.67 83.95,22.65 83.53,22.41L84.01,23.24L83.22,23.24C84.447,25.553 85.452,27.977 86.22,30.48C87.03,32.96 87.7,35.41 88.54,37.67C88.86,38.67 89.54,40.28 89.91,41.4C89.991,41.771 90.021,42.151 90,42.53C90,42.98 89.93,43.42 89.93,43.66C90.43,44.44 90.93,44.29 91.44,44.66C91.33,45.6 91.25,46.8 91.08,48.06C91.08,48.37 91.01,48.69 90.96,49.01L90.82,50.01L90.7,51.01C90.64,51.31 90.6,51.62 90.55,51.92C90.376,52.912 90.269,53.914 90.23,54.92C90.23,55.71 90.37,56.21 90.81,56.25C90.71,56.61 90.64,56.95 90.58,57.25C90.52,57.55 90.46,57.84 90.42,58.1C90.33,58.63 90.31,59.1 90.25,59.57C90.19,60.04 90.15,60.57 90.05,61.08C89.919,61.735 89.732,62.377 89.49,63C88.653,65.211 87.626,67.346 86.42,69.38C85.064,71.652 83.497,73.792 81.74,75.77C79.859,77.937 77.732,79.877 75.4,81.55L74.12,82.47L72.86,83.29C68.602,85.993 63.873,87.869 58.92,88.82C56.61,89.252 54.269,89.5 51.92,89.56C49.604,89.584 47.29,89.424 45,89.08C42.739,88.79 40.505,88.319 38.32,87.67C36.1,87.029 33.931,86.223 31.83,85.26C27.357,83.204 23.207,80.51 19.51,77.26C15.519,73.69 12.284,69.354 10,64.51C7.685,59.648 6.346,54.378 6.06,49C5.542,38.902 8.746,28.957 15.06,21.06C17.717,17.716 20.874,14.802 24.42,12.42C27.379,10.436 30.583,8.843 33.95,7.68C36.529,6.797 39.189,6.167 41.89,5.8L43.49,5.61C43.99,5.55 44.49,5.54 44.91,5.5C45.79,5.42 46.55,5.42 47.17,5.39L47.89,5.19L48.58,5L50.05,4.67Z" style="fill:rgb(247,113,125);fill-rule:nonzero;"/>
    </g>
</svg>
